<svg width="1021" height="800" viewBox="0 0 1021 800" fill="none" xmlns="http://www.w3.org/2000/svg">
<path d="M174.923 714.194H187.047V799.078H174.923V714.194Z" fill="#1D1D1B"/>
<path d="M239.891 714.194H275.669C302.948 714.194 321.529 731.395 321.529 756.636C321.529 781.877 302.948 799.078 275.669 799.078H239.891V714.194ZM274.944 788.533C295.897 788.533 309.405 775.682 309.405 756.636C309.405 737.59 295.963 724.739 274.944 724.739H252.014V788.533H274.944Z" fill="#1D1D1B"/>
<path d="M420.298 777.857H375.163L365.807 799.078H353.288L391.702 714.194H403.694L442.239 799.078H429.523L420.166 777.857H420.298ZM416.015 768.169L397.698 726.584L379.38 768.169H416.015Z" fill="#1D1D1B"/>
<path d="M474.591 789.39L479.072 779.9C485.397 785.567 496.137 789.719 507.075 789.719C521.769 789.719 528.028 783.986 528.028 776.604C528.028 755.845 476.634 768.96 476.634 737.458C476.634 724.343 486.847 713.206 509.118 713.206C519.067 713.206 529.346 715.842 536.396 720.719L532.377 730.406C524.997 725.661 516.629 723.486 509.118 723.486C494.688 723.486 488.494 729.55 488.494 736.931C488.494 757.69 539.889 744.707 539.889 775.88C539.889 788.863 529.478 800 507.009 800C494.029 800 481.312 795.651 474.525 789.324L474.591 789.39Z" fill="#1D1D1B"/>
<path d="M639.054 777.857H593.92L584.563 799.078H572.044L610.458 714.194H622.45L660.996 799.078H648.279L638.923 777.857H639.054ZM634.837 768.169L616.52 726.584L598.202 768.169H634.837Z" fill="#1D1D1B"/>
<path d="M774.129 714.194V799.078H764.18L713.246 735.745V799.078H701.123V714.194H711.072L762.005 777.527V714.194H774.129Z" fill="#1D1D1B"/>
<path d="M474.591 789.39L479.072 779.9C485.397 785.567 496.137 789.719 507.075 789.719C521.769 789.719 528.028 783.986 528.028 776.604C528.028 755.845 476.634 768.96 476.634 737.458C476.634 724.343 486.847 713.206 509.118 713.206C519.067 713.206 529.346 715.842 536.396 720.719L532.377 730.406C524.997 725.661 516.629 723.486 509.118 723.486C494.688 723.486 488.494 729.55 488.494 736.931C488.494 757.69 539.889 744.707 539.889 775.88C539.889 788.863 529.478 800 507.009 800C494.029 800 481.312 795.651 474.525 789.324L474.591 789.39Z" fill="#1D1D1B"/>
<path d="M337.475 417.629L19.3564 514.507L337.475 0V417.629Z" fill="#1D1D1B"/>
<path d="M995.784 231.716L57.1768 495.263L337.474 0L0.313477 536.98L39.4523 527.029L995.784 231.716Z" fill="#1D1D1B"/>
<path d="M1019.11 194.613L995.783 231.716L337.474 416.575L1019.11 194.613Z" stroke="#1D1D1B" stroke-miterlimit="10"/>
</svg>
